<svg width="43" height="36" viewBox="0 0 43 36" fill="none" xmlns="http://www.w3.org/2000/svg">
<path d="M13.8541 23.2737H13.8561C13.8577 23.2737 13.8594 23.2734 13.861 23.2734H36.7012C37.2635 23.2734 37.7579 22.9612 37.9124 22.5085L42.9514 7.74289C43.06 7.42456 42.9839 7.08234 42.7461 6.81812C42.5079 6.55389 42.1356 6.39844 41.7402 6.39844H10.9488L10.0483 3.00558C9.92 2.52301 9.40887 2.17969 8.81836 2.17969H1.25977C0.563942 2.17969 0 2.65183 0 3.23438C0 3.81693 0.563942 4.28906 1.25977 4.28906H7.80792C7.96736 4.89029 12.1174 20.5255 12.3562 21.425C11.0174 21.9122 10.0781 23.0298 10.0781 24.3281C10.0781 26.0728 11.7736 27.4922 13.8574 27.4922H36.7012C37.397 27.4922 37.9609 27.0201 37.9609 26.4375C37.9609 25.855 37.397 25.3828 36.7012 25.3828H13.8574C13.1629 25.3828 12.5977 24.9096 12.5977 24.3281C12.5977 23.7475 13.1609 23.2751 13.8541 23.2737ZM40.0701 8.50781L35.7508 21.1641H14.8679L11.5085 8.50781H40.0701Z" fill="black"/>
<path d="M12.5977 30.6562C12.5977 32.4009 14.2931 33.8203 16.377 33.8203C18.4608 33.8203 20.1563 32.4009 20.1563 30.6562C20.1563 28.9116 18.4608 27.4922 16.377 27.4922C14.2931 27.4922 12.5977 28.9116 12.5977 30.6562ZM16.377 29.6016C17.0715 29.6016 17.6367 30.0748 17.6367 30.6562C17.6367 31.2377 17.0715 31.7109 16.377 31.7109C15.6824 31.7109 15.1172 31.2377 15.1172 30.6562C15.1172 30.0748 15.6824 29.6016 16.377 29.6016Z" fill="black"/>
<path d="M30.4023 30.6562C30.4023 32.4009 32.0978 33.8203 34.1816 33.8203C36.2655 33.8203 37.9609 32.4009 37.9609 30.6562C37.9609 28.9116 36.2655 27.4922 34.1816 27.4922C32.0978 27.4922 30.4023 28.9116 30.4023 30.6562ZM34.1816 29.6016C34.8762 29.6016 35.4414 30.0748 35.4414 30.6562C35.4414 31.2377 34.8762 31.7109 34.1816 31.7109C33.4871 31.7109 32.9219 31.2377 32.9219 30.6562C32.9219 30.0748 33.4871 29.6016 34.1816 29.6016Z" fill="black"/>
</svg>
