<svg width="39" height="36" viewBox="0 0 39 36" fill="none" xmlns="http://www.w3.org/2000/svg">
<path d="M5.57143 13.3333C2.77932 13.3333 0.515869 15.4227 0.515869 18C0.515869 20.5773 2.77932 22.6667 5.57143 22.6667C8.36354 22.6667 10.627 20.5773 10.627 18C10.627 15.4227 8.36354 13.3333 5.57143 13.3333ZM5.57143 20.7619C3.91899 20.7619 2.57937 19.5253 2.57937 18C2.57937 16.4747 3.91899 15.2381 5.57143 15.2381C7.22387 15.2381 8.56349 16.4747 8.56349 18C8.56349 19.5253 7.22397 20.7619 5.57143 20.7619Z" fill="black"/>
<path d="M37.4524 17.0477H14.1349C13.5651 17.0477 13.1031 17.474 13.1031 18.0001C13.1031 18.5261 13.5651 18.9524 14.1349 18.9524H37.4524C38.0222 18.9524 38.4841 18.5261 38.4841 18.0001C38.4841 17.474 38.0222 17.0477 37.4524 17.0477Z" fill="black"/>
<path d="M5.57143 0C2.77932 0 0.515869 2.08934 0.515869 4.66667C0.515869 7.244 2.77932 9.33333 5.57143 9.33333C8.36354 9.33333 10.627 7.244 10.627 4.66667C10.627 2.08934 8.36354 0 5.57143 0ZM5.57143 7.42857C3.91899 7.42857 2.57937 6.19199 2.57937 4.66667C2.57937 3.14134 3.91899 1.90477 5.57143 1.90477C7.22387 1.90477 8.56349 3.14134 8.56349 4.66667C8.56349 6.19199 7.22397 7.42857 5.57143 7.42857Z" fill="black"/>
<path d="M14.1349 5.61903H37.4524C38.0222 5.61903 38.4841 5.19265 38.4841 4.66665C38.4841 4.14064 38.0222 3.71426 37.4524 3.71426H14.1349C13.5651 3.71426 13.1031 4.14064 13.1031 4.66665C13.1031 5.19265 13.5651 5.61903 14.1349 5.61903Z" fill="black"/>
<path d="M5.57143 26.6667C2.77932 26.6667 0.515869 28.756 0.515869 31.3333C0.515869 33.9107 2.77932 36 5.57143 36C8.36354 36 10.627 33.9107 10.627 31.3333C10.627 28.756 8.36354 26.6667 5.57143 26.6667ZM8.56349 31.3333C8.56349 32.8587 7.22387 34.0952 5.57143 34.0952C3.91899 34.0952 2.57937 32.8587 2.57937 31.3333C2.57937 29.808 3.91899 28.5714 5.57143 28.5714C7.22387 28.5714 8.56349 29.808 8.56349 31.3333Z" fill="black"/>
<path d="M37.4524 30.381H14.1349C13.5651 30.381 13.1031 30.8073 13.1031 31.3333C13.1031 31.8593 13.5651 32.2857 14.1349 32.2857H37.4524C38.0222 32.2857 38.4841 31.8593 38.4841 31.3333C38.4841 30.8073 38.0222 30.381 37.4524 30.381Z" fill="black"/>
</svg>
