<svg width="72" height="62" viewBox="0 0 72 62" fill="none" xmlns="http://www.w3.org/2000/svg">
<g clip-path="url(#clip0)">
<path d="M69.7083 21.9196C69.7083 21.9196 70.1102 21.3532 70.1719 21.1403C70.2336 20.9275 70.203 20.8075 70.0791 20.741C69.9553 20.6746 68.4409 21.2599 68.4409 21.2599C68.4409 21.2599 68.6109 20.182 67.8229 20.4082C67.0348 20.6344 65.968 21.2866 65.968 21.2866C65.968 21.2866 60.1875 20.0667 58.4775 19.7473C56.7671 19.4279 55.201 19.3924 52.8103 20.2442C50.4201 21.0959 46.2984 21.5185 44.8973 22.4431C44.8973 22.4431 43.5784 22.4121 42.0124 22.8545C40.4463 23.2966 32.6976 24.4677 31.4614 24.4323C30.2252 24.3968 29.1123 25.2282 24.2487 23.2331C19.3856 21.2379 19.8387 22.1253 12.9969 20.5636C6.15562 19.0022 2.23993 20.883 0.591658 23.9709C-1.05662 27.0586 1.04738 26.7656 3.10566 24.0684C3.10566 24.0684 5.86688 20.2088 12.4204 22.8351C18.9733 25.4614 25.3203 25.284 23.1773 27.5909C21.0342 29.8979 20.4984 32.2755 18.7673 32.5595C17.0362 32.8436 16.4182 33.4466 14.9755 33.305C13.5327 33.1629 13.3267 34.0146 13.0796 34.7602C12.8324 35.5057 12.4615 36.8543 12.6675 37.3865C12.8736 37.9188 12.6384 40.2256 13.3537 40.9353C14.0691 41.645 14.3573 41.3255 14.3573 41.3255C14.3573 41.3255 14.481 42.7453 15.6762 42.2126C15.6762 42.2126 17.5722 43.2064 16.8302 41.2189C16.8302 41.2189 18.2729 41.9644 18.3551 41.7157C18.4373 41.467 17.9636 40.8109 17.6236 40.6511C17.2838 40.4914 17.0055 39.7727 16.1708 39.6928C16.1708 39.6928 16.2947 37.9626 16.2947 37.5633C16.2947 37.1641 16.7584 37.2705 17.0056 37.2438C17.2527 37.217 18.0873 36.7647 18.0873 36.7647C18.0873 36.7647 24.486 37.164 26.6497 35.3009C28.8134 33.4378 32.399 33.0915 32.399 33.0915C32.399 33.0915 37.3138 34.0762 39.1993 32.9318C39.1993 32.9318 46.4631 34.2095 52.4291 30.7493C52.4291 30.7493 54.8093 32.4263 55.489 32.6391C56.1693 32.8519 56.849 34.023 56.0766 34.4491C55.3035 34.875 54.6855 35.9396 54.9947 36.1525C54.9947 36.1525 54.531 37.1109 55.3346 37.2704C55.3346 37.2704 56.1383 38.149 56.7874 37.3235C56.7874 37.3235 57.622 37.1639 58.0857 36.3121C58.5493 35.4603 58.8893 35.966 58.982 35.1941C58.982 35.1941 59.8784 33.578 59.4147 32.1901C59.4147 32.1901 60.2805 32.0532 60.713 32.5591C61.1456 33.065 61.455 32.5591 61.9186 33.1712C62.3823 33.7833 63.4952 34.6617 63.9279 34.6086C64.3605 34.5556 64.9786 35.061 65.319 34.5289C65.6594 33.9966 66.7101 34.0764 66.4625 33.331C66.4625 33.331 67.0805 32.5323 66.0914 32.3195C65.1024 32.1066 66.6479 30.8289 63.804 30.8289C63.804 30.8289 63.3404 30.749 63.0621 30.3497C62.7838 29.9504 60.1567 28.4068 59.4456 28.3269C59.4456 28.3269 61.3933 26.011 63.7734 26.6235C66.1536 27.2356 66.7407 27.5283 67.6375 27.5818C68.5338 27.6349 69.3068 29.259 70.6974 27.8746C70.6974 27.8746 71.501 27.5551 71.4704 27.2625C71.4704 27.2625 71.9341 26.9163 71.9957 26.6503C72.0574 26.384 71.2848 25.5061 71.2539 25.0268C71.2227 24.5476 71.6864 23.8966 69.7083 21.9196Z" fill="black"/>
</g>
<defs>
<clipPath id="clip0">
<rect width="72" height="62" fill="white"/>
</clipPath>
</defs>
</svg>
